<?xml version="1.0" standalone="no"?>
<!DOCTYPE svg PUBLIC "-//W3C//DTD SVG 20010904//EN"
 "http://www.w3.org/TR/2001/REC-SVG-20010904/DTD/svg10.dtd">
<svg version="1.0" xmlns="http://www.w3.org/2000/svg"
 width="280.000000pt" height="280.000000pt" viewBox="0 0 280.000000 280.000000"
 preserveAspectRatio="xMidYMid meet">
<metadata>
Created by potrace 1.11, written by Peter Selinger 2001-2013
</metadata>
<g transform="translate(0.000000,280.000000) scale(0.100000,-0.100000)"
fill="#000000" stroke="none">
<path d="M1214 2686 c-50 -13 -108 -33 -130 -44 -21 -11 -60 -22 -86 -26 -52
-8 -101 -37 -132 -79 -31 -42 -29 -134 3 -178 l24 -32 -31 -57 c-47 -85 -62
-157 -62 -296 0 -134 10 -177 38 -172 14 3 18 19 23 105 5 91 9 109 42 175 20
40 54 96 75 123 34 44 42 50 73 48 277 -19 358 -13 486 38 l73 29 36 -25 c19
-13 43 -27 52 -30 10 -2 26 -21 36 -40 11 -19 39 -48 63 -63 23 -15 43 -32 43
-38 0 -6 25 -61 55 -123 42 -85 55 -123 55 -157 0 -32 4 -44 15 -44 26 0 40
78 40 235 0 141 -2 154 -27 213 -23 53 -26 73 -22 125 7 77 -15 119 -72 137
-21 7 -52 28 -70 46 -24 26 -40 34 -66 34 -25 0 -42 8 -63 29 -80 84 -293 114
-471 67z"/>
<path d="M1066 1904 c-54 -19 -106 -61 -106 -85 0 -22 35 -27 43 -5 11 29 93
57 174 59 63 2 78 5 81 18 2 10 -6 19 -20 23 -40 10 -131 5 -172 -10z"/>
<path d="M1551 1911 c-8 -5 -11 -16 -8 -24 5 -12 23 -16 81 -15 79 0 161 -28
173 -58 8 -22 43 -17 43 5 0 26 -58 69 -116 87 -53 16 -151 18 -173 5z"/>
<path d="M1097 1722 c-36 -40 -9 -102 45 -102 51 0 78 69 40 103 -24 22 -65
21 -85 -1z"/>
<path d="M1617 1722 c-36 -40 -9 -102 45 -102 51 0 78 69 40 103 -24 22 -65
21 -85 -1z"/>
<path d="M1292 1478 c8 -13 28 -29 43 -37 58 -28 142 -11 173 37 l14 22 -122
0 -122 0 14 -22z"/>
<path d="M1220 1325 c-28 -33 26 -132 90 -165 52 -26 128 -26 180 0 64 33 118
132 90 165 -18 22 -342 22 -360 0z m340 -4 c0 -5 -7 -17 -16 -25 -23 -23 -255
-23 -278 0 -9 8 -16 20 -16 25 0 5 66 9 155 9 89 0 155 -4 155 -9z"/>
<path d="M1047 954 c-31 -7 -72 -21 -90 -30 -65 -33 -117 -98 -117 -146 0 -18
-13 -30 -63 -55 -109 -57 -228 -171 -277 -264 l-19 -37 87 -84 c127 -122 304
-232 440 -273 l22 -6 0 225 c0 124 2 226 4 226 2 0 17 -7 32 -15 l29 -15 5
-222 5 -223 60 -13 c94 -20 295 -27 394 -12 182 26 357 92 501 188 98 65 250
206 250 232 0 54 -177 236 -282 290 -60 31 -67 38 -72 72 -12 76 -99 140 -224
167 -97 20 -92 25 -92 -92 0 -123 -18 -192 -62 -243 -90 -103 -258 -106 -349
-7 -53 56 -63 89 -67 226 l-4 127 -27 -1 c-14 0 -52 -7 -84 -15z m723 -648 c0
-174 -2 -205 -16 -217 -11 -9 -20 -10 -32 -2 -15 9 -17 36 -20 201 l-2 191 27
14 c16 8 31 15 36 16 4 1 7 -91 7 -203z"/>
</g>
</svg>
